<svg height="512" viewBox="0 0 58 58" width="512" xmlns="http://www.w3.org/2000/svg"><g id="009---Happy-Astronaut" fill="none" transform="translate(0 -1)"><path id="Shape" d="m6 48h5v11h-11v-5c0-3.3137085 2.6862915-6 6-6z" fill="#547580"/><path id="Shape" d="m47 48h11v11h-5c-3.3137085 0-6-2.6862915-6-6z" fill="#547580" transform="matrix(-1 0 0 -1 105 107)"/><path id="Shape" d="m54 25.5c-.0142841 7.1383038-3.1754936 13.9070973-8.64 18.5h-32.72c-5.46339471-4.5937554-8.62434844-11.3620013-8.64-18.5.06597028-6.5642142 2.73703499-12.83333 7.4255178-17.42804308 4.6884828-4.59471314 11.0102748-7.13859695 17.5744822-7.07195692 13.6670984-.13322897 24.857127 10.832999 25 24.5z" fill="#894b9d"/><path id="Shape" d="m51.81 15.47c-3.5852626 9.0100975-11.1801761 15.8233907-20.5252452 18.4129172s-19.363484.6569014-27.0747548-5.2229172c-1.98-14.56 9.65-27.66 24.79-27.66 9.779012-.05305566 18.6911634 5.60055376 22.81 14.47z" fill="#955ba5"/><path id="Shape" d="m46.64 22.42c-6.52-6.99-15.53-10.42-24.64-7.19l-5 2.48c-2.0669241 1.3315647-3.9612928 2.9135641-5.64 4.71 1.7034929-8.3891663 9.0796262-14.41804523 17.64-14.41804523s15.9365071 6.02887893 17.64 14.41804523z" fill="#f29c1f"/><path id="Shape" d="m47 32c0 6.627417-5.372583 12-12 12h-12c-6.627417 0-12-5.372583-12-12 0-5.77-.11-7.29.36-9.58 1.6787072-1.7964359 3.5730759-3.3784353 5.64-4.71l5-2.48c9.12-3.24 18.14.22 24.64 7.19.46 2.25.36 3.36.36 9.58z" fill="#f9c795"/><path id="Shape" d="m47 30c0 6.627417-5.372583 12-12 12h-12c-6.627417 0-12-5.372583-12-12 0-3.65-.1-5.34.36-7.58 1.6787072-1.7964359 3.5730759-3.3784353 5.64-4.71l5-2.48c9.12-3.24 18.14.22 24.64 7.19.47 2.25.36 3.7.36 7.58z" fill="#fdd7ad"/><path id="Shape" d="m23 28c-1.1045695 0-2-.8954305-2-2v-3c0-1.1045695.8954305-2 2-2s2 .8954305 2 2v3c0 1.1045695-.8954305 2-2 2z" fill="#2c3e50"/><path id="Shape" d="m35 28c-1.1045695 0-2-.8954305-2-2v-3c0-1.1045695.8954305-2 2-2s2 .8954305 2 2v3c0 1.1045695-.8954305 2-2 2z" fill="#2c3e50"/><path id="Shape" d="m41 32s0 6.24-8.27 7.7c-2.4705834.3999682-4.9894166.3999682-7.46 0-8.27-1.46-8.27-7.7-8.27-7.7z" fill="#d75e72"/><path id="Shape" d="m14 44h30c2.7614237 0 5 2.2385763 5 5v10h-40v-10c0-2.7614237 2.2385763-5 5-5z" fill="#35495e"/><path id="Shape" d="m44 49v6c0 .5522847-.4477153 1-1 1h-10c-.5522847 0-1-.4477153-1-1v-3h4c.5522847 0 1-.4477153 1-1v-3h6c.5522847 0 1 .4477153 1 1z" fill="#f29c1f"/><g fill="#2c3e50"><path id="Shape" d="m15 51h-1c-.5522847 0-1-.4477153-1-1s.4477153-1 1-1h1c.5522847 0 1 .4477153 1 1s-.4477153 1-1 1z"/><path id="Shape" d="m24 51h-5c-.5522847 0-1-.4477153-1-1s.4477153-1 1-1h5c.5522847 0 1 .4477153 1 1s-.4477153 1-1 1z"/><path id="Shape" d="m15 55h-1c-.5522847 0-1-.4477153-1-1s.4477153-1 1-1h1c.5522847 0 1 .4477153 1 1s-.4477153 1-1 1z"/><path id="Shape" d="m24 55h-5c-.5522847 0-1-.4477153-1-1s.4477153-1 1-1h5c.5522847 0 1 .4477153 1 1s-.4477153 1-1 1z"/></g><path id="Shape" d="m37 48v3c0 .5522847-.4477153 1-1 1h-4v-3c0-.5522847.4477153-1 1-1z" fill="#f0c419"/><path id="Shape" d="m38 29h-18c-.5522847 0-1-.4477153-1-1s.4477153-1 1-1h18c.5522847 0 1 .4477153 1 1s-.4477153 1-1 1z" fill="#f9c795"/><path id="Shape" d="m23 24c-.5522847 0-1-.4477153-1-1v-1c0-.5522847.4477153-1 1-1s1 .4477153 1 1v1c0 .5522847-.4477153 1-1 1z" fill="#fff"/><path id="Shape" d="m35 24c-.5522847 0-1-.4477153-1-1v-1c0-.5522847.4477153-1 1-1s1 .4477153 1 1v1c0 .5522847-.4477153 1-1 1z" fill="#fff"/><path id="Shape" d="m32.73 39.7c-2.4705834.3999682-4.9894166.3999682-7.46 0-2.3272749-1.8503946-2.9483858-5.1261165-1.46-7.7h10.38c1.4883858 2.5738835.8672749 5.8496054-1.46 7.7z" fill="#802d40"/></g></svg>